<svg width="24" height="30" viewBox="0 0 24 30" fill="none" xmlns="http://www.w3.org/2000/svg">
<path d="M15.7929 30C13.5928 30.0015 11.4191 29.5241 9.42419 28.6012C7.42931 27.6782 5.66161 26.3322 4.24515 24.6575C2.82868 22.9828 1.79777 21.02 1.22475 18.9069C0.651735 16.7937 0.550495 14.5814 0.928137 12.4252C1.30578 10.269 2.15316 8.22117 3.4108 6.42535C4.66844 4.62953 6.30589 3.12927 8.20822 2.02984C10.1106 0.930403 12.2317 0.258438 14.4228 0.061098C16.6139 -0.136242 18.8218 0.145822 20.8917 0.887498C21.5116 1.10878 22.0605 1.49145 22.4812 1.99561C22.9018 2.49978 23.1788 3.10697 23.2833 3.75389C23.3878 4.4008 23.3159 5.06376 23.0751 5.67362C22.8344 6.28349 22.4336 6.81794 21.9145 7.22125C15.5064 12.1212 15.5215 17.895 21.9145 22.7787C22.4335 23.1822 22.8342 23.7169 23.0748 24.3269C23.3153 24.9369 23.387 25.5999 23.2823 26.2469C23.1775 26.8938 22.9003 27.501 22.4794 28.005C22.0584 28.509 21.5093 28.8915 20.8892 29.1125C19.2532 29.6935 17.5299 29.9936 15.7929 30ZM15.7929 3.75C14.1491 3.74819 12.5247 4.10291 11.0328 4.78945C9.54088 5.47599 8.21736 6.47783 7.15442 7.72521C6.09148 8.97258 5.31466 10.4355 4.87808 12.012C4.4415 13.5886 4.35566 15.2409 4.62652 16.8538C4.89739 18.4667 5.51845 20.0015 6.44646 21.3513C7.37446 22.701 8.5871 23.8333 9.9999 24.6692C11.4127 25.5051 12.9917 26.0245 14.6269 26.1913C16.2621 26.3581 17.9142 26.1683 19.4681 25.635C11.2871 19.3037 11.3147 10.6737 19.4681 4.365C18.2839 3.96618 17.0431 3.75855 15.7929 3.75Z" fill="#4944A4"/>
</svg>
