<svg width="30" height="30" viewBox="0 0 30 30" fill="none" xmlns="http://www.w3.org/2000/svg">
<path d="M15 8.75C11.55 8.75 8.75 11.55 8.75 15C8.75 18.45 11.55 21.25 15 21.25C18.45 21.25 21.25 18.45 21.25 15C21.25 11.55 18.45 8.75 15 8.75ZM15 17.5C13.625 17.5 12.5 16.375 12.5 15C12.5 13.625 13.625 12.5 15 12.5C16.375 12.5 17.5 13.625 17.5 15C17.5 16.375 16.375 17.5 15 17.5ZM21.1875 8.8125C20.45 8.075 20.45 6.8875 21.1875 6.1625L22.95 4.4C23.6875 3.6625 24.875 3.6625 25.6 4.4C26.3375 5.1375 26.3375 6.325 25.6 7.05L23.8375 8.8125C23.475 9.175 22.9875 9.3625 22.5125 9.3625C22.0375 9.3625 21.55 9.175 21.1875 8.8125ZM8.8125 21.1875C9.55 21.925 9.55 23.1125 8.8125 23.8375L7.05 25.6C6.6875 25.9625 6.2 26.15 5.725 26.15C5.25 26.15 4.7625 25.9625 4.4 25.6C3.6625 24.8625 3.6625 23.675 4.4 22.95L6.1625 21.1875C6.9 20.45 8.0875 20.45 8.8125 21.1875ZM4.3875 7.05C3.65 6.3125 3.65 5.125 4.3875 4.4C5.125 3.6625 6.3125 3.6625 7.0375 4.4L8.8 6.1625C9.5375 6.9 9.5375 8.0875 8.8 8.8125C8.4375 9.175 7.95 9.3625 7.475 9.3625C7 9.3625 6.5125 9.175 6.15 8.8125L4.3875 7.05ZM25.6 22.9625C26.3375 23.7 26.3375 24.8875 25.6 25.6125C25.2375 25.975 24.75 26.1625 24.275 26.1625C23.8 26.1625 23.3125 25.975 22.95 25.6125L21.1875 23.85C20.45 23.1125 20.45 21.925 21.1875 21.2C21.925 20.4625 23.1125 20.4625 23.8375 21.2L25.6 22.9625ZM29.9875 15.0125C29.9875 16.05 29.15 16.8875 28.1125 16.8875H25.6125C24.575 16.8875 23.7375 16.05 23.7375 15.0125C23.7375 13.975 24.575 13.1375 25.6125 13.1375H28.1125C29.15 13.1375 29.9875 13.975 29.9875 15.0125ZM4.375 16.875H1.875C0.8375 16.875 0 16.0375 0 15C0 13.9625 0.8375 13.125 1.875 13.125H4.375C5.4125 13.125 6.25 13.9625 6.25 15C6.25 16.0375 5.4125 16.875 4.375 16.875ZM13.125 4.375V1.875C13.125 0.8375 13.9625 0 15 0C16.0375 0 16.875 0.8375 16.875 1.875V4.375C16.875 5.4125 16.0375 6.25 15 6.25C13.9625 6.25 13.125 5.4125 13.125 4.375ZM16.875 25.625V28.125C16.875 29.1625 16.0375 30 15 30C13.9625 30 13.125 29.1625 13.125 28.125V25.625C13.125 24.5875 13.9625 23.75 15 23.75C16.0375 23.75 16.875 24.5875 16.875 25.625Z" fill="white" fill-opacity="0.7"/>
</svg>
