<svg width="45" height="46" viewBox="0 0 45 46" fill="none" xmlns="http://www.w3.org/2000/svg">
<g clip-path="url(#clip0_126_327)">
<path d="M34.4908 33.0426C34.3178 33.4173 33.5106 33.5536 33.7412 32.9404C33.9719 32.3272 39.1036 21.1881 41.1217 14.2049C43.1398 7.18762 44.9272 0.953807 42.8515 0.953807C40.8334 0.953807 35.1251 3.61084 26.0725 10.9007C17.02 18.2586 14.5406 21.7332 13.1568 21.7332C10.6774 21.7332 12.5225 17.8498 13.1568 13.1489C13.7334 8.99304 15.0595 3.84929 12.8685 3.84929C10.9657 3.84929 5.66102 8.00517 3.06633 14.0687C0.759948 19.553 0.47165 24.1858 1.91314 25.1396C2.89335 25.8209 2.08612 26.0594 1.22123 25.4462C-0.623882 24.0496 -0.335584 18.5992 1.79782 13.8302C4.10421 8.89084 9.40889 3.168 12.6955 3.168C16.2704 3.168 14.5983 10.7644 14.1946 13.1489C13.7334 15.8741 12.0036 20.9838 13.2144 20.9838C13.3297 20.9838 18.2885 15.6016 24.8617 10.5259C31.4349 5.3822 38.9883 0 42.7938 0C46.2534 0 45.2155 5.41626 42.6208 14.2049C40.1415 22.721 35.644 30.59 34.4908 33.0426Z" fill="white" fill-opacity="0.7"/>
</g>
<path d="M10.3955 39.0503C10.8995 39.0503 11.3355 39.1503 11.7035 39.3503C12.0795 39.5423 12.3715 39.8383 12.5795 40.2383C12.7875 40.6303 12.8915 41.1183 12.8915 41.7023V45.3623H12.2915V41.7503C12.2915 41.0463 12.1195 40.5103 11.7755 40.1423C11.4315 39.7743 10.9515 39.5903 10.3355 39.5903C9.86349 39.5903 9.45549 39.6903 9.11149 39.8903C8.76749 40.0903 8.50349 40.3703 8.31949 40.7303C8.13549 41.0903 8.04349 41.5223 8.04349 42.0263V45.3623H7.44349V41.7503C7.44349 41.0463 7.27149 40.5103 6.92749 40.1423C6.58349 39.7743 6.10349 39.5903 5.48749 39.5903C5.01549 39.5903 4.60749 39.6903 4.26349 39.8903C3.91949 40.0903 3.65549 40.3703 3.47149 40.7303C3.28749 41.0903 3.19549 41.5223 3.19549 42.0263V45.3623H2.59549V39.0983H3.17149V40.8263L3.08749 40.6343C3.27149 40.1463 3.57949 39.7623 4.01149 39.4823C4.44349 39.1943 4.96349 39.0503 5.57149 39.0503C6.19549 39.0503 6.71949 39.2103 7.14349 39.5303C7.57549 39.8423 7.84749 40.3103 7.95949 40.9343L7.75549 40.8503C7.92349 40.3143 8.23949 39.8823 8.70349 39.5543C9.16749 39.2183 9.73149 39.0503 10.3955 39.0503ZM17.8169 45.4103C17.2169 45.4103 16.6809 45.2743 16.2089 45.0023C15.7449 44.7303 15.3729 44.3543 15.0929 43.8743C14.8209 43.3943 14.6849 42.8463 14.6849 42.2303C14.6849 41.6063 14.8209 41.0583 15.0929 40.5863C15.3729 40.1063 15.7449 39.7303 16.2089 39.4583C16.6809 39.1863 17.2169 39.0503 17.8169 39.0503C18.4169 39.0503 18.9529 39.1863 19.4249 39.4583C19.8969 39.7303 20.2689 40.1063 20.5409 40.5863C20.8129 41.0583 20.9489 41.6063 20.9489 42.2303C20.9489 42.8463 20.8129 43.3943 20.5409 43.8743C20.2689 44.3543 19.8969 44.7303 19.4249 45.0023C18.9529 45.2743 18.4169 45.4103 17.8169 45.4103ZM17.8169 44.8703C18.2969 44.8703 18.7289 44.7623 19.1129 44.5463C19.4969 44.3223 19.7969 44.0103 20.0129 43.6103C20.2289 43.2103 20.3369 42.7503 20.3369 42.2303C20.3369 41.7023 20.2289 41.2423 20.0129 40.8503C19.7969 40.4503 19.4969 40.1423 19.1129 39.9263C18.7289 39.7023 18.2969 39.5903 17.8169 39.5903C17.3369 39.5903 16.9049 39.7023 16.5209 39.9263C16.1449 40.1423 15.8449 40.4503 15.6209 40.8503C15.4049 41.2423 15.2969 41.7023 15.2969 42.2303C15.2969 42.7503 15.4049 43.2103 15.6209 43.6103C15.8449 44.0103 16.1449 44.3223 16.5209 44.5463C16.9049 44.7623 17.3369 44.8703 17.8169 44.8703ZM22.8103 45.3623V39.0983H23.3863V40.8143L23.3263 40.6223C23.5023 40.1183 23.7983 39.7303 24.2143 39.4583C24.6303 39.1863 25.1503 39.0503 25.7743 39.0503V39.6383C25.7503 39.6383 25.7263 39.6383 25.7023 39.6383C25.6783 39.6303 25.6543 39.6263 25.6303 39.6263C24.9343 39.6263 24.3903 39.8463 23.9983 40.2863C23.6063 40.7183 23.4103 41.3223 23.4103 42.0983V45.3623H22.8103ZM29.0818 45.4103C28.5618 45.4103 28.0738 45.3343 27.6178 45.1823C27.1698 45.0303 26.8218 44.8383 26.5738 44.6063L26.8498 44.1263C27.0898 44.3343 27.4098 44.5143 27.8098 44.6663C28.2098 44.8103 28.6418 44.8823 29.1058 44.8823C29.7618 44.8823 30.2338 44.7743 30.5218 44.5583C30.8098 44.3423 30.9538 44.0583 30.9538 43.7063C30.9538 43.4503 30.8778 43.2503 30.7258 43.1063C30.5818 42.9543 30.3858 42.8383 30.1378 42.7583C29.8898 42.6783 29.6178 42.6143 29.3218 42.5663C29.0258 42.5103 28.7298 42.4503 28.4338 42.3863C28.1378 42.3223 27.8658 42.2303 27.6178 42.1103C27.3698 41.9903 27.1698 41.8263 27.0178 41.6183C26.8738 41.4023 26.8018 41.1183 26.8018 40.7663C26.8018 40.4463 26.8898 40.1583 27.0658 39.9023C27.2418 39.6463 27.5058 39.4423 27.8578 39.2903C28.2098 39.1303 28.6498 39.0503 29.1778 39.0503C29.5698 39.0503 29.9618 39.1063 30.3538 39.2183C30.7538 39.3303 31.0778 39.4783 31.3258 39.6623L31.0498 40.1423C30.7858 39.9423 30.4898 39.7983 30.1618 39.7103C29.8338 39.6223 29.5018 39.5783 29.1658 39.5783C28.5578 39.5783 28.1098 39.6903 27.8218 39.9143C27.5418 40.1383 27.4018 40.4183 27.4018 40.7543C27.4018 41.0183 27.4738 41.2303 27.6178 41.3903C27.7698 41.5423 27.9698 41.6623 28.2178 41.7503C28.4658 41.8303 28.7378 41.8983 29.0338 41.9543C29.3298 42.0023 29.6258 42.0583 29.9218 42.1223C30.2178 42.1863 30.4898 42.2783 30.7378 42.3983C30.9858 42.5103 31.1818 42.6703 31.3258 42.8783C31.4778 43.0783 31.5538 43.3503 31.5538 43.6943C31.5538 44.0383 31.4578 44.3383 31.2658 44.5943C31.0818 44.8503 30.8058 45.0503 30.4378 45.1943C30.0698 45.3383 29.6178 45.4103 29.0818 45.4103Z" fill="white" fill-opacity="0.7"/>
<defs>
<clipPath id="clip0_126_327">
<rect width="45" height="33.3621" fill="white"/>
</clipPath>
</defs>
</svg>
