<svg width="46" height="46" viewBox="0 0 46 46" fill="none" xmlns="http://www.w3.org/2000/svg">
<g clip-path="url(#clip0_121_6)">
<path d="M34.67 33.0426C34.4961 33.4173 33.6847 33.5536 33.9165 32.9404C34.1484 32.3272 39.3067 21.1881 41.3353 14.2049C43.3639 7.18762 45.1606 0.953807 43.0741 0.953807C41.0455 0.953807 35.3075 3.61084 26.208 10.9007C17.1084 18.2586 14.6161 21.7332 13.2251 21.7332C10.7329 21.7332 12.5876 17.8498 13.2251 13.1489C13.8047 8.99304 15.1378 3.84929 12.9353 3.84929C11.0227 3.84929 5.69042 8.00517 3.08226 14.0687C0.763896 19.553 0.4741 24.1858 1.92308 25.1396C2.90838 25.8209 2.09696 26.0594 1.22757 25.4462C-0.627123 24.0496 -0.337328 18.5992 1.80716 13.8302C4.12553 8.89084 9.45777 3.168 12.7614 3.168C16.3549 3.168 14.6741 10.7644 14.2684 13.1489C13.8047 15.8741 12.0659 20.9838 13.2831 20.9838C13.399 20.9838 18.3835 15.6016 24.9908 10.5259C31.5982 5.3822 39.1908 0 43.0161 0C46.4937 0 45.4504 5.41626 42.8422 14.2049C40.35 22.721 35.8292 30.59 34.67 33.0426Z" fill="#4944A4"/>
</g>
<path d="M10.4024 39.0503C10.9064 39.0503 11.3424 39.1503 11.7104 39.3503C12.0864 39.5423 12.3784 39.8383 12.5864 40.2383C12.7944 40.6303 12.8984 41.1183 12.8984 41.7023V45.3623H12.2984V41.7503C12.2984 41.0463 12.1264 40.5103 11.7824 40.1423C11.4384 39.7743 10.9584 39.5903 10.3424 39.5903C9.87044 39.5903 9.46244 39.6903 9.11844 39.8903C8.77444 40.0903 8.51044 40.3703 8.32644 40.7303C8.14244 41.0903 8.05044 41.5223 8.05044 42.0263V45.3623H7.45044V41.7503C7.45044 41.0463 7.27844 40.5103 6.93444 40.1423C6.59044 39.7743 6.11044 39.5903 5.49444 39.5903C5.02244 39.5903 4.61444 39.6903 4.27044 39.8903C3.92644 40.0903 3.66244 40.3703 3.47844 40.7303C3.29444 41.0903 3.20244 41.5223 3.20244 42.0263V45.3623H2.60244V39.0983H3.17844V40.8263L3.09444 40.6343C3.27844 40.1463 3.58644 39.7623 4.01844 39.4823C4.45044 39.1943 4.97044 39.0503 5.57844 39.0503C6.20244 39.0503 6.72644 39.2103 7.15044 39.5303C7.58244 39.8423 7.85444 40.3103 7.96644 40.9343L7.76244 40.8503C7.93044 40.3143 8.24644 39.8823 8.71044 39.5543C9.17444 39.2183 9.73844 39.0503 10.4024 39.0503ZM17.8239 45.4103C17.2239 45.4103 16.6879 45.2743 16.2159 45.0023C15.7519 44.7303 15.3799 44.3543 15.0999 43.8743C14.8279 43.3943 14.6919 42.8463 14.6919 42.2303C14.6919 41.6063 14.8279 41.0583 15.0999 40.5863C15.3799 40.1063 15.7519 39.7303 16.2159 39.4583C16.6879 39.1863 17.2239 39.0503 17.8239 39.0503C18.4239 39.0503 18.9599 39.1863 19.4319 39.4583C19.9039 39.7303 20.2759 40.1063 20.5479 40.5863C20.8199 41.0583 20.9559 41.6063 20.9559 42.2303C20.9559 42.8463 20.8199 43.3943 20.5479 43.8743C20.2759 44.3543 19.9039 44.7303 19.4319 45.0023C18.9599 45.2743 18.4239 45.4103 17.8239 45.4103ZM17.8239 44.8703C18.3039 44.8703 18.7359 44.7623 19.1199 44.5463C19.5039 44.3223 19.8039 44.0103 20.0199 43.6103C20.2359 43.2103 20.3439 42.7503 20.3439 42.2303C20.3439 41.7023 20.2359 41.2423 20.0199 40.8503C19.8039 40.4503 19.5039 40.1423 19.1199 39.9263C18.7359 39.7023 18.3039 39.5903 17.8239 39.5903C17.3439 39.5903 16.9119 39.7023 16.5279 39.9263C16.1519 40.1423 15.8519 40.4503 15.6279 40.8503C15.4119 41.2423 15.3039 41.7023 15.3039 42.2303C15.3039 42.7503 15.4119 43.2103 15.6279 43.6103C15.8519 44.0103 16.1519 44.3223 16.5279 44.5463C16.9119 44.7623 17.3439 44.8703 17.8239 44.8703ZM22.8173 45.3623V39.0983H23.3933V40.8143L23.3333 40.6223C23.5093 40.1183 23.8053 39.7303 24.2213 39.4583C24.6373 39.1863 25.1573 39.0503 25.7813 39.0503V39.6383C25.7573 39.6383 25.7333 39.6383 25.7093 39.6383C25.6853 39.6303 25.6613 39.6263 25.6373 39.6263C24.9413 39.6263 24.3973 39.8463 24.0053 40.2863C23.6133 40.7183 23.4173 41.3223 23.4173 42.0983V45.3623H22.8173ZM29.0888 45.4103C28.5688 45.4103 28.0808 45.3343 27.6248 45.1823C27.1768 45.0303 26.8288 44.8383 26.5808 44.6063L26.8568 44.1263C27.0968 44.3343 27.4168 44.5143 27.8168 44.6663C28.2168 44.8103 28.6488 44.8823 29.1128 44.8823C29.7688 44.8823 30.2408 44.7743 30.5288 44.5583C30.8168 44.3423 30.9608 44.0583 30.9608 43.7063C30.9608 43.4503 30.8848 43.2503 30.7328 43.1063C30.5888 42.9543 30.3928 42.8383 30.1448 42.7583C29.8968 42.6783 29.6248 42.6143 29.3288 42.5663C29.0328 42.5103 28.7368 42.4503 28.4408 42.3863C28.1448 42.3223 27.8728 42.2303 27.6248 42.1103C27.3768 41.9903 27.1768 41.8263 27.0248 41.6183C26.8808 41.4023 26.8088 41.1183 26.8088 40.7663C26.8088 40.4463 26.8968 40.1583 27.0728 39.9023C27.2488 39.6463 27.5128 39.4423 27.8648 39.2903C28.2168 39.1303 28.6568 39.0503 29.1848 39.0503C29.5768 39.0503 29.9688 39.1063 30.3608 39.2183C30.7608 39.3303 31.0848 39.4783 31.3328 39.6623L31.0568 40.1423C30.7928 39.9423 30.4968 39.7983 30.1688 39.7103C29.8408 39.6223 29.5088 39.5783 29.1728 39.5783C28.5648 39.5783 28.1168 39.6903 27.8288 39.9143C27.5488 40.1383 27.4088 40.4183 27.4088 40.7543C27.4088 41.0183 27.4808 41.2303 27.6248 41.3903C27.7768 41.5423 27.9768 41.6623 28.2248 41.7503C28.4728 41.8303 28.7448 41.8983 29.0408 41.9543C29.3368 42.0023 29.6328 42.0583 29.9288 42.1223C30.2248 42.1863 30.4968 42.2783 30.7448 42.3983C30.9928 42.5103 31.1888 42.6703 31.3328 42.8783C31.4848 43.0783 31.5608 43.3503 31.5608 43.6943C31.5608 44.0383 31.4648 44.3383 31.2728 44.5943C31.0888 44.8503 30.8128 45.0503 30.4448 45.1943C30.0768 45.3383 29.6248 45.4103 29.0888 45.4103Z" fill="#4944A4"/>
<defs>
<clipPath id="clip0_121_6">
<rect width="45.2338" height="33.3621" fill="white"/>
</clipPath>
</defs>
</svg>
