<svg width="40" height="40" viewBox="0 0 40 40" fill="none" xmlns="http://www.w3.org/2000/svg">
<path fill-rule="evenodd" clip-rule="evenodd" d="M20 0.493286C8.955 0.493286 0 9.44662 0 20.4933C0 29.33 5.73 36.8266 13.6767 39.4716C14.6767 39.6566 15.0433 39.0383 15.0433 38.51C15.0433 38.0333 15.025 36.4583 15.0167 34.7866C9.45333 35.9966 8.27833 32.4266 8.27833 32.4266C7.36833 30.115 6.05833 29.5 6.05833 29.5C4.24333 28.2583 6.195 28.285 6.195 28.285C8.20333 28.4266 9.26 30.3466 9.26 30.3466C11.0433 33.4033 13.9383 32.52 15.08 32.0083C15.26 30.715 15.7783 29.8333 16.35 29.3333C11.9083 28.8283 7.23833 27.1133 7.23833 19.45C7.23833 17.2666 8.02 15.4816 9.3 14.0816C9.09167 13.5766 8.40667 11.5433 9.49333 8.78829C9.49333 8.78829 11.1733 8.25162 14.995 10.8383C16.59 10.395 18.3 10.1733 20 10.165C21.7 10.1733 23.4117 10.395 25.01 10.8383C28.8267 8.24995 30.505 8.78829 30.505 8.78829C31.5933 11.5433 30.9083 13.5766 30.7017 14.0816C31.9833 15.4816 32.76 17.2666 32.76 19.45C32.76 27.1316 28.0817 28.8233 23.6283 29.3183C24.345 29.9383 24.985 31.1566 24.985 33.0216C24.985 35.6983 24.9617 37.8516 24.9617 38.51C24.9617 39.0416 25.3217 39.6666 26.335 39.47C34.2783 36.8216 40.0017 29.3283 40.0017 20.495C40 9.44829 31.045 0.493286 20 0.493286Z" fill="white" fill-opacity="0.9"/>
<path d="M7.57499 29.21C7.53166 29.31 7.37499 29.34 7.23166 29.2717C7.08666 29.2067 7.00499 29.07 7.05166 28.9717C7.09499 28.87 7.25166 28.8417 7.39666 28.91C7.54166 28.9733 7.62499 29.11 7.57499 29.21Z" fill="white" fill-opacity="0.9"/>
<path d="M8.385 30.1133C8.29 30.2016 8.10333 30.16 7.97667 30.0216C7.845 29.8816 7.82167 29.695 7.91833 29.6066C8.01667 29.5183 8.19667 29.56 8.32834 29.7C8.46 29.8383 8.485 30.0233 8.385 30.1133Z" fill="white" fill-opacity="0.9"/>
<path d="M9.17334 31.265C9.05 31.35 8.85 31.27 8.72667 31.0933C8.60334 30.915 8.60334 30.7016 8.73 30.6166C8.85334 30.5316 9.05167 30.6083 9.17667 30.785C9.29834 30.965 9.29834 31.1783 9.17334 31.265Z" fill="white" fill-opacity="0.9"/>
<path d="M10.2533 32.3782C10.1433 32.4999 9.91 32.4666 9.74 32.3016C9.565 32.1399 9.51666 31.9116 9.62666 31.7899C9.73833 31.6682 9.97333 31.7032 10.145 31.8666C10.3183 32.0282 10.37 32.2582 10.2533 32.3782Z" fill="white" fill-opacity="0.9"/>
<path d="M11.745 33.0233C11.6967 33.1799 11.4717 33.2516 11.245 33.1849C11.0183 33.1166 10.87 32.9333 10.9167 32.775C10.9633 32.6166 11.19 32.5433 11.4183 32.615C11.6433 32.6816 11.7917 32.8649 11.745 33.0233Z" fill="white" fill-opacity="0.9"/>
<path d="M13.3817 33.1432C13.3867 33.3082 13.195 33.4449 12.9567 33.4482C12.7183 33.4532 12.5233 33.3199 12.5217 33.1582C12.5217 32.9916 12.71 32.8566 12.9483 32.8516C13.1867 32.8466 13.3817 32.9799 13.3817 33.1432Z" fill="white" fill-opacity="0.9"/>
<path d="M14.905 32.8849C14.9333 33.0449 14.7683 33.2116 14.5317 33.2549C14.3 33.2983 14.085 33.1983 14.055 33.0383C14.0267 32.8733 14.195 32.7083 14.4267 32.6649C14.6617 32.6233 14.875 32.7199 14.905 32.8849Z" fill="white" fill-opacity="0.9"/>
</svg>
