<svg width="40" height="40" viewBox="0 0 40 40" fill="none" xmlns="http://www.w3.org/2000/svg">
<g clip-path="url(#clip0_125_42)">
<path fill-rule="evenodd" clip-rule="evenodd" d="M20 0.493408C8.955 0.493408 0 9.44674 0 20.4934C0 29.3301 5.73 36.8267 13.6767 39.4717C14.6767 39.6567 15.0433 39.0384 15.0433 38.5101C15.0433 38.0334 15.025 36.4584 15.0167 34.7867C9.45333 35.9967 8.27833 32.4267 8.27833 32.4267C7.36833 30.1151 6.05833 29.5001 6.05833 29.5001C4.24333 28.2584 6.195 28.2851 6.195 28.2851C8.20333 28.4267 9.26 30.3467 9.26 30.3467C11.0433 33.4034 13.9383 32.5201 15.08 32.0084C15.26 30.7151 15.7783 29.8334 16.35 29.3334C11.9083 28.8284 7.23833 27.1134 7.23833 19.4501C7.23833 17.2667 8.02 15.4817 9.3 14.0817C9.09167 13.5767 8.40667 11.5434 9.49333 8.78841C9.49333 8.78841 11.1733 8.25174 14.995 10.8384C16.59 10.3951 18.3 10.1734 20 10.1651C21.7 10.1734 23.4117 10.3951 25.01 10.8384C28.8267 8.25007 30.505 8.78841 30.505 8.78841C31.5933 11.5434 30.9083 13.5767 30.7017 14.0817C31.9833 15.4817 32.76 17.2667 32.76 19.4501C32.76 27.1317 28.0817 28.8234 23.6283 29.3184C24.345 29.9384 24.985 31.1567 24.985 33.0217C24.985 35.6984 24.9617 37.8517 24.9617 38.5101C24.9617 39.0417 25.3217 39.6667 26.335 39.4701C34.2783 36.8217 40.0017 29.3284 40.0017 20.4951C40 9.44841 31.045 0.493408 20 0.493408Z" fill="#4944A4" fill-opacity="0.8"/>
<path d="M7.57499 29.2101C7.53166 29.3101 7.37499 29.3401 7.23166 29.2718C7.08666 29.2068 7.00499 29.0701 7.05166 28.9718C7.09499 28.8701 7.25166 28.8418 7.39666 28.9101C7.54166 28.9735 7.62499 29.1101 7.57499 29.2101Z" fill="#4944A4" fill-opacity="0.8"/>
<path d="M8.385 30.1133C8.29 30.2016 8.10333 30.16 7.97667 30.0216C7.845 29.8816 7.82167 29.695 7.91833 29.6066C8.01667 29.5183 8.19667 29.56 8.32834 29.7C8.46 29.8383 8.485 30.0233 8.385 30.1133Z" fill="#4944A4" fill-opacity="0.8"/>
<path d="M9.17334 31.2651C9.05 31.3501 8.85 31.2701 8.72667 31.0934C8.60334 30.9151 8.60334 30.7018 8.73 30.6168C8.85334 30.5318 9.05167 30.6084 9.17667 30.7851C9.29834 30.9651 9.29834 31.1784 9.17334 31.2651Z" fill="#4944A4" fill-opacity="0.8"/>
<path d="M10.2533 32.3785C10.1433 32.5001 9.91 32.4668 9.74 32.3018C9.565 32.1401 9.51666 31.9118 9.62666 31.7901C9.73833 31.6685 9.97333 31.7035 10.145 31.8668C10.3183 32.0285 10.37 32.2585 10.2533 32.3785Z" fill="#4944A4" fill-opacity="0.8"/>
<path d="M11.745 33.0235C11.6967 33.1802 11.4717 33.2519 11.245 33.1852C11.0183 33.1169 10.87 32.9335 10.9167 32.7752C10.9633 32.6169 11.19 32.5435 11.4183 32.6152C11.6433 32.6819 11.7917 32.8652 11.745 33.0235Z" fill="#4944A4" fill-opacity="0.8"/>
<path d="M13.3817 33.1434C13.3867 33.3084 13.195 33.445 12.9567 33.4484C12.7183 33.4534 12.5233 33.32 12.5217 33.1584C12.5217 32.9917 12.71 32.8567 12.9483 32.8517C13.1867 32.8467 13.3817 32.98 13.3817 33.1434Z" fill="#4944A4" fill-opacity="0.8"/>
<path d="M14.905 32.8852C14.9333 33.0452 14.7683 33.2118 14.5317 33.2552C14.3 33.2985 14.085 33.1985 14.055 33.0385C14.0267 32.8735 14.195 32.7085 14.4267 32.6652C14.6617 32.6235 14.875 32.7202 14.905 32.8852Z" fill="#4944A4" fill-opacity="0.8"/>
</g>
<defs>
<clipPath id="clip0_125_42">
<rect width="40" height="40" fill="white"/>
</clipPath>
</defs>
</svg>
